<svg width="50" height="50" viewBox="0 0 50 50" fill="none" xmlns="http://www.w3.org/2000/svg">
<path d="M26.6047 40.281C30.0781 36.258 38 26.5078 38 21.0311C38 14.3889 32.1771 9 25 9C17.8229 9 12 14.3889 12 21.0311C12 26.5078 19.9219 36.258 23.3953 40.281C24.2281 41.2397 25.7719 41.2397 26.6047 40.281V40.281ZM25 25.0415C22.6099 25.0415 20.6667 23.2431 20.6667 21.0311C20.6667 18.8192 22.6099 17.0208 25 17.0208C27.3901 17.0208 29.3333 18.8192 29.3333 21.0311C29.3333 23.2431 27.3901 25.0415 25 25.0415Z" fill="#FF8000"/>
<path d="M4 5V45M46 45V5" stroke="black" stroke-width="4"/>
</svg>
