<svg width="25" height="31" viewBox="0 0 25 31" fill="none" xmlns="http://www.w3.org/2000/svg">
<path d="M14.043 30.3034C17.3828 26.4062 25 16.9607 25 11.6552C25 5.22054 19.401 0 12.5 0C5.59896 0 0 5.22054 0 11.6552C0 16.9607 7.61719 26.4062 10.957 30.3034C11.7578 31.2322 13.2422 31.2322 14.043 30.3034V30.3034ZM12.5 15.5402C10.2018 15.5402 8.33333 13.798 8.33333 11.6552C8.33333 9.51231 10.2018 7.77011 12.5 7.77011C14.7982 7.77011 16.6667 9.51231 16.6667 11.6552C16.6667 13.798 14.7982 15.5402 12.5 15.5402Z" fill="#FF8000"/>
</svg>
